<?xml version="1.0" encoding="UTF-8"?>
<svg version="1.1" xmlns="http://www.w3.org/2000/svg" width="512" height="512">
<path d="M0 0 C1.27974963 -0.00453111 2.55949925 -0.00906223 3.87802917 -0.01373065 C7.41916665 -0.02593463 10.96020946 -0.02570326 14.50136316 -0.02334189 C18.32496931 -0.02293306 22.14854538 -0.03397928 25.97213745 -0.04345703 C33.45961666 -0.06005426 40.94706437 -0.06556602 48.43456044 -0.06668179 C54.5231589 -0.06763297 60.611747 -0.07174678 66.70034218 -0.07808304 C83.97418637 -0.09569281 101.24800572 -0.10492245 118.52185895 -0.10342209 C119.91806811 -0.10330222 119.91806811 -0.10330222 121.34248352 -0.10317993 C122.27443032 -0.10309817 123.20637713 -0.10301641 124.16656474 -0.10293217 C139.26386164 -0.10211959 154.36105869 -0.12125096 169.45832672 -0.14945666 C184.97142362 -0.1782098 200.48447187 -0.19199559 215.99759609 -0.19026911 C224.70243695 -0.189606 233.40717316 -0.19506368 242.11198997 -0.21662521 C249.52477438 -0.23486912 256.93740672 -0.23915816 264.35020389 -0.22560637 C268.12896786 -0.21909253 271.90744037 -0.21890161 275.6861763 -0.23631287 C279.79157256 -0.25503387 283.89629894 -0.24244773 288.00170898 -0.22705078 C289.18373781 -0.23733791 290.36576664 -0.24762503 291.58361453 -0.25822389 C304.2696099 -0.15342364 315.12631011 3.59658172 324.4745636 12.26742554 C331.46476392 19.5706199 336.43028237 28.74557493 336.45253468 39.00804996 C336.45699252 39.96368086 336.46145036 40.91931175 336.46604329 41.90390116 C336.46576675 43.47434889 336.46576675 43.47434889 336.46548462 45.07652283 C336.46916131 46.19107265 336.472838 47.30562247 336.4766261 48.45394653 C336.48767152 52.20240574 336.49150826 55.95083724 336.49531555 59.6993103 C336.50157958 62.38152736 336.50821355 65.06374144 336.51522827 67.74595642 C336.53498015 75.80521674 336.54505774 83.86447828 336.55395606 91.92375675 C336.55834147 95.72133221 336.56370767 99.51890628 336.56894493 103.31648064 C336.58595672 115.94482032 336.60044981 128.57315914 336.60769367 141.20150852 C336.60960349 144.47779402 336.61152383 147.75407952 336.61347961 151.03036499 C336.61396335 151.84464602 336.61444709 152.65892704 336.61494549 153.49788325 C336.62324174 166.6819552 336.64857199 179.86593631 336.68106029 193.04996861 C336.71416129 206.5933488 336.73214522 220.13668287 336.73533791 233.68010372 C336.73750031 241.28111749 336.74620914 248.88199882 336.77179909 256.4829731 C336.79354778 262.9578548 336.80153615 269.43257188 336.79183231 275.90748597 C336.78729941 279.20818286 336.79131391 282.50847088 336.80859375 285.80913544 C336.82631871 289.39618882 336.81920231 292.98238826 336.80606079 296.56944275 C336.82251466 298.1164679 336.82251466 298.1164679 336.83930093 299.69474608 C336.73450391 311.5886441 332.3222369 321.66669077 324.35346985 330.42758179 C316.69228963 337.83939267 306.66385669 342.38139767 295.95578766 342.40164661 C294.31426263 342.40833338 294.31426263 342.40833338 292.63957548 342.41515523 C291.43765452 342.41497087 290.23573356 342.41478651 288.99739075 342.41459656 C287.08161122 342.42011159 287.08161122 342.42011159 285.12712908 342.42573804 C281.57923809 342.43574945 278.03136402 342.43947346 274.4834609 342.44212735 C270.65776445 342.44603303 266.83208135 342.45561129 263.00639343 342.46434021 C253.76506249 342.48409868 244.52373046 342.49417072 235.28238368 342.503068 C230.92856065 342.50745251 226.57473882 342.51281895 222.22091675 342.51805687 C207.74394229 342.53506965 193.26696858 342.54956277 178.78998566 342.55680561 C175.03347777 342.55871546 171.2769699 342.56063579 167.52046204 342.56259155 C166.11999708 342.56331716 166.11999708 342.56331716 164.69123989 342.56405743 C149.57435766 342.57235377 134.45755466 342.59768376 119.340707 342.63017223 C103.81415045 342.66326861 88.28763412 342.68125676 72.76104212 342.68444985 C64.04608911 342.68661272 55.33125159 342.69532849 46.61633301 342.72091103 C39.19250453 342.7426534 31.7688196 342.75065115 24.34496289 342.74094424 C20.56013821 342.73640955 16.77560946 342.73823683 12.99082565 342.75770569 C8.87871246 342.77867466 4.76725118 342.7683199 0.65510559 342.75517273 C-1.12100719 342.7716266 -1.12100719 342.7716266 -2.93300104 342.78841287 C-16.27690476 342.68573947 -26.87359327 338.46551139 -36.6816864 329.42367554 C-43.2975877 322.46557244 -47.79492007 313.20591995 -47.81590748 303.52680111 C-47.82259424 302.09335477 -47.82259424 302.09335477 -47.8294161 300.63094991 C-47.82923173 299.58398476 -47.82904737 298.53701961 -47.82885742 297.45832825 C-47.83253411 296.34377842 -47.8362108 295.2292286 -47.8399989 294.08090454 C-47.85104432 290.33244533 -47.85488106 286.58401383 -47.85868835 282.83554077 C-47.86495239 280.15332372 -47.87158635 277.47110963 -47.87860107 274.78889465 C-47.89835296 266.72963434 -47.90843055 258.67037279 -47.91732886 250.61109433 C-47.92171428 246.81351887 -47.92708047 243.0159448 -47.93231773 239.21837044 C-47.94932953 226.59003075 -47.96382261 213.96169193 -47.97106647 201.33334255 C-47.9729763 198.05705705 -47.97489664 194.78077156 -47.97685242 191.50448608 C-47.97733616 190.69020506 -47.9778199 189.87592403 -47.9783183 189.03696782 C-47.98661454 175.85289587 -48.01194479 162.66891477 -48.04443309 149.48488247 C-48.07753409 135.94150228 -48.09551802 122.3981682 -48.09871072 108.85474735 C-48.10087311 101.25373358 -48.10958194 93.65285226 -48.13517189 86.05187798 C-48.15692058 79.57699627 -48.16490895 73.10227919 -48.15520511 66.6273651 C-48.15067222 63.32666821 -48.15468671 60.0263802 -48.17196655 56.72571564 C-48.18969151 53.13866225 -48.18257511 49.55246282 -48.16943359 45.96540833 C-48.18040284 44.93405823 -48.19137209 43.90270813 -48.20267373 42.840105 C-48.09979411 31.16382177 -43.85628762 20.86786133 -35.8691864 12.32992554 C-25.34657288 2.48619031 -13.9556571 -0.0362254 0 0 Z M21.0683136 115.76742554 C16.29553245 122.58568432 16.16808078 129.44868086 16.17304993 137.63021851 C16.16969131 138.43608398 16.1663327 139.24194946 16.16287231 140.07223511 C16.15342693 142.71804373 16.15142252 145.36378864 16.15034485 148.00961304 C16.14712808 149.86134873 16.14376369 151.71308417 16.14025879 153.56481934 C16.13428375 157.43981515 16.13241724 161.31478872 16.13301086 165.18978882 C16.13311245 170.13798784 16.11945623 175.08604328 16.10223866 180.0342083 C16.09108301 183.85708259 16.08909274 187.67992253 16.08962059 191.50281143 C16.088446 193.32633077 16.08405372 195.14985116 16.07628822 196.97335434 C16.066415 199.53095118 16.06939492 202.08824099 16.07539368 204.64584351 C16.06977417 205.38795074 16.06415466 206.13005798 16.05836487 206.89465332 C16.10528791 214.82661912 17.19473087 221.97273818 22.3183136 228.26742554 C28.96516727 234.24959384 34.89964218 235.38198578 43.73164368 235.41268921 C44.98346939 235.41906906 46.2352951 235.42544891 47.52505493 235.43202209 C48.87931784 235.43355124 50.23358127 235.43466495 51.58784485 235.43539429 C52.99260491 235.43861245 54.39736464 235.44197694 55.80212402 235.44548035 C58.74152909 235.45145275 61.68090485 235.45332222 64.62031555 235.45272827 C68.36572638 235.45262682 72.11094692 235.46626967 75.85631275 235.48350048 C78.75701746 235.49468222 81.65767707 235.49664558 84.55840111 235.49611855 C85.93813926 235.49728973 87.31787893 235.50166248 88.6975956 235.50945091 C103.09297033 235.75049851 103.09297033 235.75049851 115.81440735 229.76351929 C119.59741316 226.00016545 122.20083299 220.99474414 122.43183899 215.63192749 C122.42660217 214.60027466 122.42136536 213.56862183 122.41596985 212.50570679 C122.41347229 211.49806274 122.41097473 210.4904187 122.40840149 209.45223999 C122.39929749 208.17437622 122.39019348 206.89651245 122.3808136 205.57992554 C122.3601886 201.51680054 122.3395636 197.45367554 122.3183136 193.26742554 C112.0883136 193.26742554 101.8583136 193.26742554 91.3183136 193.26742554 C91.3183136 196.56742554 91.3183136 199.86742554 91.3183136 203.26742554 C77.1283136 203.26742554 62.9383136 203.26742554 48.3183136 203.26742554 C48.3183136 182.14742554 48.3183136 161.02742554 48.3183136 139.26742554 C62.5083136 139.26742554 76.6983136 139.26742554 91.3183136 139.26742554 C91.3183136 142.56742554 91.3183136 145.86742554 91.3183136 149.26742554 C101.5483136 149.26742554 111.7783136 149.26742554 122.3183136 149.26742554 C122.3801886 145.28680054 122.4420636 141.30617554 122.5058136 137.20492554 C122.53312561 135.96347778 122.56043762 134.72203003 122.58857727 133.44296265 C122.64635304 125.75008817 121.73251537 121.1122654 117.6308136 114.57992554 C111.56303032 108.51214226 104.2400043 107.15052229 95.9108429 107.12216187 C94.63569321 107.11578201 93.36054352 107.10940216 92.04675293 107.10282898 C90.66201312 107.1012999 89.27727281 107.10018615 87.89253235 107.09945679 C86.46152717 107.09624008 85.03052232 107.0928757 83.59951782 107.08937073 C80.60286192 107.0833926 77.6062348 107.08152943 74.60957336 107.0821228 C70.78668763 107.08222426 66.9639883 107.06858327 63.14114666 107.05135059 C60.1855791 107.04018149 57.23005587 107.03820511 54.27446938 107.03873253 C52.86599397 107.03755938 51.45751716 107.03317528 50.04906273 107.02540016 C33.96701471 106.90908011 33.96701471 106.90908011 21.0683136 115.76742554 Z M170.3183136 115.26742554 C166.53706924 121.00544067 165.73954084 126.02133643 165.81660461 132.7852478 C165.81120163 133.70176117 165.80579865 134.61827454 165.80023193 135.56256104 C165.78779929 138.56998721 165.8041981 141.57644587 165.82221985 144.58383179 C165.82206475 146.68555247 165.82057392 148.78727344 165.81781006 150.88899231 C165.81642855 155.28439038 165.82894378 159.67946114 165.85176086 164.07479858 C165.88016199 169.69923906 165.87739995 175.32313678 165.86467075 180.94761753 C165.85770539 185.2842927 165.86551242 189.62084313 165.87792778 193.95750237 C165.88243269 196.03107156 165.8827875 198.10465419 165.87886238 200.17822456 C165.87594134 203.07876016 165.89249949 205.97855588 165.91426086 208.8789978 C165.90975922 209.72958267 165.90525757 210.58016754 165.90061951 211.45652771 C165.99280403 218.87815514 167.92719234 224.87630428 173.3183136 230.26742554 C179.62590759 234.20304615 185.31328363 235.38744997 192.7257843 235.41268921 C194.63850883 235.42225899 194.63850883 235.42225899 196.58987427 235.43202209 C197.97461407 235.43355118 199.35935439 235.43466492 200.74409485 235.43539429 C202.17510002 235.43861099 203.60610488 235.44197537 205.03710938 235.44548035 C208.03376528 235.45145848 211.03039239 235.45332164 214.02705383 235.45272827 C217.84993957 235.45262681 221.6726389 235.4662678 225.49548054 235.48350048 C228.4510481 235.49466959 231.40657132 235.49664596 234.36215782 235.49611855 C235.77063323 235.4972917 237.17911004 235.50167579 238.58756447 235.50945091 C252.87250478 235.65646044 252.87250478 235.65646044 265.3183136 229.26742554 C272.57241601 221.20731175 272.47704496 213.19310634 272.3808136 202.82992554 C272.3601886 199.67430054 272.3395636 196.51867554 272.3183136 193.26742554 C261.7583136 193.26742554 251.1983136 193.26742554 240.3183136 193.26742554 C240.3183136 196.56742554 240.3183136 199.86742554 240.3183136 203.26742554 C226.1283136 203.26742554 211.9383136 203.26742554 197.3183136 203.26742554 C197.3183136 182.14742554 197.3183136 161.02742554 197.3183136 139.26742554 C211.5083136 139.26742554 225.6983136 139.26742554 240.3183136 139.26742554 C240.3183136 142.56742554 240.3183136 145.86742554 240.3183136 149.26742554 C250.8783136 149.26742554 261.4383136 149.26742554 272.3183136 149.26742554 C272.3595636 146.15305054 272.4008136 143.03867554 272.4433136 139.82992554 C272.46152161 138.86772095 272.47972961 137.90551636 272.49848938 136.91415405 C272.55191975 128.46784675 271.80410904 121.00711708 266.3183136 114.26742554 C259.64648456 108.2627794 253.68973744 107.16073747 244.82905579 107.10629272 C243.56043701 107.09668518 242.29181824 107.08707764 240.98475647 107.07717896 C239.61156903 107.07232951 238.23837948 107.06805104 236.8651886 107.06430054 C235.81648968 107.06005947 235.81648968 107.06005947 234.74660492 107.05573273 C231.0457319 107.04078836 227.34489737 107.03152927 223.64399719 107.02719116 C219.84703945 107.02171756 216.05044228 106.99769966 212.25359726 106.96921921 C209.31081658 106.95047347 206.36812065 106.9453809 203.42528534 106.94385529 C202.02682274 106.94085441 200.62836069 106.93291411 199.22995758 106.9196701 C188.47737712 106.82511188 178.04779796 106.98583515 170.3183136 115.26742554 Z " fill="#000000" transform="translate(111.68168640136719,84.73257446289063)"/>
</svg>
